<?xml version="1.0" encoding="UTF-8" standalone="no"?>
<svg
   xmlns:dc="http://purl.org/dc/elements/1.1/"
   xmlns:cc="http://creativecommons.org/ns#"
   xmlns:rdf="http://www.w3.org/1999/02/22-rdf-syntax-ns#"
   xmlns:svg="http://www.w3.org/2000/svg"
   xmlns="http://www.w3.org/2000/svg"
   version="1.1"
   id="svg2"
   viewBox="0 0 10.022 16.058283"
   height="4.5320044mm"
   width="2.8284311mm">
  <defs
     id="defs4" />
  <metadata
     id="metadata7">
    <rdf:RDF>
      <cc:Work
         rdf:about="">
        <dc:format>image/svg+xml</dc:format>
        <dc:type
           rdf:resource="http://purl.org/dc/dcmitype/StillImage" />
        <dc:title></dc:title>
      </cc:Work>
    </rdf:RDF>
  </metadata>
  <g
     transform="translate(154.57485,-397.08649)"
     id="layer1">
    <g
       transform="translate(-156.14285,-266.42351)"
       id="g4213" />
    <path
       id="path4265"
       d="m -147.47685,412.73249 c -0.6,-0.6 -6.598,-6.498 -6.598,-6.498 -0.3,-0.3 -0.5,-0.7 -0.5,-1.1 0,-0.4 0.2,-0.8 0.5,-1.1 0,0 5.998,-5.898 6.598,-6.498 0.6,-0.6 1.699,-0.6 2.399,0 0.7,0.6 0.7,1.399 0,2.199 l -5.498,5.398 5.498,5.398 c 0.7,0.7 0.7,1.599 0,2.199 -0.7,0.6 -1.799,0.502 -2.399,0.002 z"
       style="fill:#ffffff;fill-opacity:1" />
    <g
       transform="translate(-156.14285,-266.42351)"
       id="Layer_1_2_" />
  </g>
  <style
     type="text/css"
     id="style4137">
	.st0{fill:#3A74AE;}
	.st1{fill:#FFA800;}
	.st2{fill:#37B09A;}
	.st3{fill:#CC1C39;}
</style>
</svg>
