<?xml version="1.0" encoding="UTF-8" standalone="no"?>
<svg
   xmlns:dc="http://purl.org/dc/elements/1.1/"
   xmlns:cc="http://creativecommons.org/ns#"
   xmlns:rdf="http://www.w3.org/1999/02/22-rdf-syntax-ns#"
   xmlns:svg="http://www.w3.org/2000/svg"
   xmlns="http://www.w3.org/2000/svg"
   version="1.1"
   id="svg2"
   viewBox="0 0 511.99998 269.62001"
   height="76.092758mm"
   width="144.49777mm">
  <defs
     id="defs4" />
  <metadata
     id="metadata7">
    <rdf:RDF>
      <cc:Work
         rdf:about="">
        <dc:format>image/svg+xml</dc:format>
        <dc:type
           rdf:resource="http://purl.org/dc/dcmitype/StillImage" />
        <dc:title></dc:title>
      </cc:Work>
    </rdf:RDF>
  </metadata>
  <g
     transform="translate(395.28571,-397.5522)"
     id="layer1">
    <g
       transform="translate(-395.28571,276.3622)"
       id="g4137">
      <g
         id="g4139">
        <path
           id="path4141"
           d="m 109.15,199.697 c 0,3.035 -0.911,5.496 -2.035,5.496 l -64.187,0 c -1.125,0 -2.037,-2.461 -2.037,-5.496 l 0,0 c 0,-3.036 0.912,-5.497 2.037,-5.497 l 64.187,0 c 1.124,-10e-4 2.035,2.46 2.035,5.497 l 0,0 z"
           style="fill:#d1d5d5" />
        <path
           id="path4143"
           d="m 109.15,227.848 c 0,3.035 -1.207,5.496 -2.697,5.496 l -85.062,0 c -1.49,0 -2.697,-2.461 -2.697,-5.496 l 0,0 c 0,-3.035 1.207,-5.497 2.697,-5.497 l 85.062,0 c 1.49,-0.001 2.697,2.462 2.697,5.497 l 0,0 z"
           style="fill:#d1d5d5" />
        <path
           id="path4145"
           d="m 109.15,312.299 c 0,-3.036 -0.911,-5.498 -2.035,-5.498 l -64.187,0 c -1.125,0 -2.037,2.462 -2.037,5.498 l 0,0 c 0,3.033 0.912,5.495 2.037,5.495 l 64.187,0 c 1.124,0 2.035,-2.462 2.035,-5.495 l 0,0 z"
           style="fill:#d1d5d5" />
        <path
           id="path4147"
           d="m 109.15,284.147 c 0,-3.035 -1.207,-5.497 -2.697,-5.497 l -85.062,0 c -1.49,0 -2.697,2.462 -2.697,5.497 l 0,0 c 0,3.033 1.207,5.496 2.697,5.496 l 85.062,0 c 1.49,0.002 2.697,-2.462 2.697,-5.496 l 0,0 z"
           style="fill:#d1d5d5" />
        <path
           id="path4149"
           d="m 109.15,255.997 c 0,3.035 -1.458,5.498 -3.254,5.498 l -102.641,0 C 1.458,261.495 0,259.032 0,255.997 l 0,0 c 0,-3.035 1.458,-5.496 3.255,-5.496 l 102.641,0 c 1.796,0 3.254,2.461 3.254,5.496 l 0,0 z"
           style="fill:#d1d5d5" />
      </g>
      <g
         id="g4151">
        <path
           id="path4153"
           d="m 512,368.806 c 0,12.15 -9.85,22 -22,22 l -342.277,0 c -12.15,0 -22,-9.85 -22,-22 l 0,-225.616 c 0,-12.15 9.85,-22 22,-22 l 342.277,0 c 12.15,0 22,9.85 22,22 l 0,225.616 0,0 z"
           style="fill:#f2f2f2;fill-opacity:1" />
        <g
           id="g4155">
          <path
             id="path4157"
             d="m 480.247,315.91 c 0,2.448 -2.711,4.434 -6.056,4.434 l -118.997,0 c -3.345,0 -6.056,-1.985 -6.056,-4.434 l 0,-0.168 c 0,-2.446 2.711,-4.431 6.056,-4.431 l 118.997,0 c 3.345,0 6.056,1.984 6.056,4.431 l 0,0.168 z"
             style="fill:#d1d5d5" />
          <path
             id="path4159"
             d="m 480.247,332.922 c 0,2.45 -2.711,4.434 -6.056,4.434 l -118.997,0 c -3.345,0 -6.056,-1.983 -6.056,-4.434 l 0,-0.165 c 0,-2.449 2.711,-4.434 6.056,-4.434 l 118.997,0 c 3.345,0 6.056,1.984 6.056,4.434 l 0,0.165 z"
             style="fill:#d1d5d5" />
          <path
             id="path4161"
             d="m 480.247,349.938 c 0,2.447 -2.711,4.431 -6.056,4.431 l -118.997,0 c -3.345,0 -6.056,-1.983 -6.056,-4.431 l 0,-0.167 c 0,-2.45 2.711,-4.435 6.056,-4.435 l 118.997,0 c 3.345,0 6.056,1.984 6.056,4.435 l 0,0.167 z"
             style="fill:#d1d5d5" />
        </g>
        <g
           id="g4163">
          <g
             id="g4165">
            <g
               id="g4167">
              <g
                 id="g4169">
                <g
                   id="g4171">
                  <path
                     style="fill:#df584c"
                     d="m 204.721,134.19 23.371,0 14.72,-13 -23.369,0 z"
                     id="polygon4173" />
                  <path
                     style="fill:#e2e5e7"
                     d="m 181.354,134.19 23.367,0 14.722,-13 -23.369,0 z"
                     id="polygon4175" />
                  <path
                     style="fill:#e2e5e7"
                     d="m 228.092,134.19 23.368,0 14.721,-13 -23.369,0 z"
                     id="polygon4177" />
                  <path
                     style="fill:#e2e5e7"
                     d="m 274.83,134.19 23.368,0 14.72,-13 -23.368,0 z"
                     id="polygon4179" />
                  <path
                     style="fill:#df584c"
                     d="m 125.723,134.19 8.893,0 14.72,-13 -23.613,0 z"
                     id="polygon4181" />
                  <path
                     style="fill:#e2e5e7"
                     d="m 134.616,134.19 23.369,0 14.72,-13 -23.369,0 z"
                     id="polygon4183" />
                  <path
                     style="fill:#e2e5e7"
                     d="m 415.043,134.19 23.371,0 14.717,-13 -23.368,0 z"
                     id="polygon4185" />
                  <path
                     style="fill:#e2e5e7"
                     d="m 461.781,134.19 23.369,0 14.721,-13 -23.37,0 z"
                     id="polygon4187" />
                  <path
                     style="fill:#df584c"
                     d="m 298.198,134.19 23.369,0 14.721,-13 -23.37,0 z"
                     id="polygon4189" />
                  <path
                     style="fill:#df584c"
                     d="m 485.15,134.19 26.85,0 0,-13 -12.129,0 z"
                     id="polygon4191" />
                  <path
                     style="fill:#df584c"
                     d="m 391.674,134.19 23.369,0 14.72,-13 -23.369,0 z"
                     id="polygon4193" />
                  <path
                     style="fill:#e2e5e7"
                     d="m 321.567,134.19 23.37,0 14.721,-13 -23.37,0 z"
                     id="polygon4195" />
                  <g
                     id="g4197">
                    <path
                       style="fill:#2d404e"
                       d="m 251.46,134.19 23.37,0 14.72,-13 -23.369,0 z"
                       id="polygon4199" />
                    <path
                       style="fill:#2d404e"
                       d="m 157.985,134.19 23.369,0 14.72,-13 -23.369,0 z"
                       id="polygon4201" />
                    <path
                       style="fill:#2d404e"
                       d="m 438.414,134.19 23.367,0 14.72,-13 -23.37,0 z"
                       id="polygon4203" />
                    <path
                       style="fill:#2d404e"
                       d="m 344.937,134.19 23.368,0 14.72,-13 -23.367,0 z"
                       id="polygon4205" />
                  </g>
                  <path
                     style="fill:#e2e5e7"
                     d="m 368.305,134.19 23.369,0 14.72,-13 -23.369,0 z"
                     id="polygon4207" />
                </g>
                <g
                   id="g4209">
                  <path
                     style="fill:#df584c"
                     d="m 125.723,355.212 0,-17.799 13,-11.211 0,17.798 z"
                     id="polygon4211" />
                  <path
                     style="fill:#e2e5e7"
                     d="m 125.723,373.009 0,-17.797 13,-11.212 0,17.798 z"
                     id="polygon4213" />
                  <path
                     style="fill:#e2e5e7"
                     d="m 125.723,337.413 0,-17.797 13,-11.211 0,17.797 z"
                     id="polygon4215" />
                  <path
                     style="fill:#e2e5e7"
                     d="m 125.723,301.818 0,-17.797 13,-11.211 0,17.797 z"
                     id="polygon4217" />
                  <path
                     style="fill:#e2e5e7"
                     d="m 125.723,195.031 0,-17.798 13,-11.211 0,17.798 z"
                     id="polygon4219" />
                  <path
                     style="fill:#e2e5e7"
                     d="m 125.723,159.436 0,-17.797 13,-11.212 0,17.798 z"
                     id="polygon4221" />
                  <path
                     style="fill:#df584c"
                     d="m 125.723,284.021 0,-17.798 13,-11.211 0,17.798 z"
                     id="polygon4223" />
                  <path
                     style="fill:#df584c"
                     d="m 125.723,141.639 0,-20.449 13,0 0,9.237 z"
                     id="polygon4225" />
                  <path
                     style="fill:#df584c"
                     d="m 125.723,212.829 0,-17.798 13,-11.211 0,17.8 z"
                     id="polygon4227" />
                  <path
                     style="fill:#e2e5e7"
                     d="m 125.723,266.223 0,-17.796 13,-11.213 0,17.798 z"
                     id="polygon4229" />
                  <g
                     id="g4231">
                    <path
                       style="fill:#2d404e"
                       d="m 125.723,319.616 0,-17.798 13,-11.211 0,17.798 z"
                       id="polygon4233" />
                    <path
                       style="fill:#2d404e"
                       d="m 125.723,390.81 0,-17.801 13,-11.211 0,29.011 z"
                       id="polygon4235" />
                    <path
                       style="fill:#2d404e"
                       d="m 125.723,177.233 0,-17.797 13,-11.211 0,17.797 z"
                       id="polygon4237" />
                    <path
                       style="fill:#2d404e"
                       d="m 125.723,248.427 0,-17.801 13,-11.209 0,17.797 z"
                       id="polygon4239" />
                  </g>
                  <path
                     style="fill:#e2e5e7"
                     d="m 125.723,230.626 0,-17.797 13,-11.209 0,17.797 z"
                     id="polygon4241" />
                </g>
                <g
                   id="g4243">
                  <path
                     style="fill:#df584c"
                     d="m 208.015,377.806 23.12,0 14.563,13 -23.119,0 z"
                     id="polygon4245" />
                  <path
                     style="fill:#e2e5e7"
                     d="m 184.898,377.806 23.117,0 14.564,13 -23.119,0 z"
                     id="polygon4247" />
                  <path
                     style="fill:#e2e5e7"
                     d="m 231.135,377.806 23.118,0 14.563,13 -23.118,0 z"
                     id="polygon4249" />
                  <path
                     style="fill:#e2e5e7"
                     d="m 277.372,377.806 23.118,0 14.562,13 -23.117,0 z"
                     id="polygon4251" />
                  <path
                     style="fill:#df584c"
                     d="m 125.723,377.806 12.938,0 14.563,13 -27.501,0 z"
                     id="polygon4253" />
                  <path
                     style="fill:#e2e5e7"
                     d="m 416.082,377.806 23.121,0 14.559,13 -23.117,0 z"
                     id="polygon4255" />
                  <path
                     style="fill:#e2e5e7"
                     d="m 462.319,377.806 23.119,0 14.562,13 -23.118,0 z"
                     id="polygon4257" />
                  <path
                     style="fill:#df584c"
                     d="m 300.49,377.806 23.118,0 14.563,13 -23.119,0 z"
                     id="polygon4259" />
                  <path
                     style="fill:#df584c"
                     d="m 485.438,377.806 26.562,0 0,13 -12,0 z"
                     id="polygon4261" />
                  <path
                     style="fill:#df584c"
                     d="m 392.964,377.806 23.118,0 14.563,13 -23.119,0 z"
                     id="polygon4263" />
                  <path
                     style="fill:#e2e5e7"
                     d="m 323.608,377.806 23.12,0 14.562,13 -23.119,0 z"
                     id="polygon4265" />
                  <g
                     id="g4267">
                    <path
                       style="fill:#2d404e"
                       d="m 254.253,377.806 23.119,0 14.563,13 -23.119,0 z"
                       id="polygon4269" />
                    <path
                       style="fill:#2d404e"
                       d="m 161.78,377.806 23.118,0 14.562,13 -23.118,0 z"
                       id="polygon4271" />
                    <path
                       style="fill:#2d404e"
                       d="m 439.203,377.806 23.116,0 14.563,13 -23.12,0 z"
                       id="polygon4273" />
                    <path
                       style="fill:#2d404e"
                       d="m 346.728,377.806 23.117,0 14.563,13 -23.118,0 z"
                       id="polygon4275" />
                  </g>
                  <path
                     style="fill:#e2e5e7"
                     d="m 369.845,377.806 23.119,0 14.562,13 -23.118,0 z"
                     id="polygon4277" />
                </g>
                <g
                   id="g4279">
                  <path
                     style="fill:#df584c"
                     d="m 512,353.961 0,-17.21 -13,-10.838 0,17.207 z"
                     id="polygon4281" />
                  <path
                     style="fill:#e2e5e7"
                     d="m 512,371.168 0,-17.207 -13,-10.841 0,17.207 z"
                     id="polygon4283" />
                  <path
                     style="fill:#e2e5e7"
                     d="m 512,336.751 0,-17.207 -13,-10.84 0,17.209 z"
                     id="polygon4285" />
                  <path
                     style="fill:#e2e5e7"
                     d="m 512,302.336 0,-17.208 -13,-10.84 0,17.207 z"
                     id="polygon4287" />
                  <path
                     style="fill:#e2e5e7"
                     d="m 512,199.086 0,-17.207 -13,-10.84 0,17.207 z"
                     id="polygon4289" />
                  <path
                     style="fill:#e2e5e7"
                     d="m 512,164.669 0,-21.207 -13,-10.841 0,21.208 z"
                     id="polygon4291" />
                  <path
                     style="fill:#df584c"
                     d="m 512,285.128 0,-17.211 -13,-10.838 0,17.209 z"
                     id="polygon4293" />
                  <path
                     style="fill:#df584c"
                     d="m 512,145.462 0,-17.772 -13,0 0,6.931 z"
                     id="polygon4295" />
                  <path
                     style="fill:#df584c"
                     d="m 512,216.294 0,-17.208 -13,-10.84 0,17.211 z"
                     id="polygon4297" />
                  <path
                     style="fill:#e2e5e7"
                     d="m 512,267.917 0,-17.205 -13,-10.841 0,17.208 z"
                     id="polygon4299" />
                  <g
                     id="g4301">
                    <path
                       style="fill:#2d404e"
                       d="m 512,319.544 0,-17.208 -13,-10.841 0,17.209 z"
                       id="polygon4303" />
                    <path
                       style="fill:#2d404e"
                       d="m 512,378.379 0,-7.211 -13,-10.841 0,18.051 z"
                       id="polygon4305" />
                    <path
                       style="fill:#2d404e"
                       d="m 512,181.879 0,-17.21 -13,-10.84 0,17.21 z"
                       id="polygon4307" />
                    <path
                       style="fill:#2d404e"
                       d="m 512,250.712 0,-17.209 -13,-10.838 0,17.206 z"
                       id="polygon4309" />
                  </g>
                  <path
                     style="fill:#e2e5e7"
                     d="m 512,233.503 0,-17.209 -13,-10.837 0,17.208 z"
                     id="polygon4311" />
                </g>
              </g>
            </g>
          </g>
        </g>
        <path
           id="path4313"
           d="m 474.58,219.048 c 0,6.272 -5.1,11.357 -11.391,11.357 l -40.34,0 c -6.291,0 -11.391,-5.085 -11.391,-11.357 l 0,-49.697 c 0,-6.272 5.1,-11.357 11.391,-11.357 l 40.34,0 c 6.291,0 11.391,5.085 11.391,11.357 l 0,49.697 z"
           style="fill:#d1d5d5" />
      </g>
    </g>
    <g
       transform="translate(-395.28571,276.3622)"
       id="g4315" />
    <g
       transform="translate(-395.28571,276.3622)"
       id="g4317" />
    <g
       transform="translate(-395.28571,276.3622)"
       id="g4319" />
    <g
       transform="translate(-395.28571,276.3622)"
       id="g4321" />
    <g
       transform="translate(-395.28571,276.3622)"
       id="g4323" />
    <g
       transform="translate(-395.28571,276.3622)"
       id="g4325" />
    <g
       transform="translate(-395.28571,276.3622)"
       id="g4327" />
    <g
       transform="translate(-395.28571,276.3622)"
       id="g4329" />
    <g
       transform="translate(-395.28571,276.3622)"
       id="g4331" />
    <g
       transform="translate(-395.28571,276.3622)"
       id="g4333" />
    <g
       transform="translate(-395.28571,276.3622)"
       id="g4335" />
    <g
       transform="translate(-395.28571,276.3622)"
       id="g4337" />
    <g
       transform="translate(-395.28571,276.3622)"
       id="g4339" />
    <g
       transform="translate(-395.28571,276.3622)"
       id="g4341" />
    <g
       transform="translate(-395.28571,276.3622)"
       id="g4343" />
    <path
       style="fill:#e2e5e7"
       d="m -255.91551,654.48946 23.117,0 14.564,13 -23.119,0 z"
       id="polygon4247-0" />
  </g>
</svg>
