<svg xmlns="http://www.w3.org/2000/svg" viewBox="-57 83 17 16">
  <path fill="#FFF" d="M-42.5 99h-12c-1.4 0-2.5-1.1-2.5-2.5v-8c0-1.4 1.1-2.5 2.5-2.5h12c1.4 0 2.5 1.1 2.5 2.5v8c0 1.4-1.1 2.5-2.5 2.5zm-12-12c-.8 0-1.5.7-1.5 1.5v8c0 .8.7 1.5 1.5 1.5h12c.8 0 1.5-.7 1.5-1.5v-8c0-.8-.7-1.5-1.5-1.5h-12z"/>
  <path fill="#FFF" d="M-56.5 91h16v1h-16z"/>
  <path fill="#FFF" d="M-51.5 93c-.3 0-.5-.2-.5-.5v-2c0-.3.2-.5.5-.5s.5.2.5.5v2c0 .3-.2.5-.5.5zM-45.5 93c-.3 0-.5-.2-.5-.5v-2c0-.3.2-.5.5-.5s.5.2.5.5v2c0 .3-.2.5-.5.5z"/>
  <g>
    <path fill="#FFF" d="M-52 86.5v-1.7c0-1 .8-1.8 1.8-1.8h3.5c1 0 1.8.8 1.8 1.8v1.7h-1v-1.7c0-.4-.3-.8-.8-.8h-3.5c-.4 0-.8.3-.8.8v1.7h-1z"/>
  </g>
</svg>
