<svg xmlns="http://www.w3.org/2000/svg" viewBox="-57 84.4 17 14.6">
  <path fill="#FFF" d="M-43.7 96h-7.1c-1.1 0-2.1-.7-2.4-1.8l-2-6.9-.5-1.7-1-.3c-.3-.1-.4-.4-.3-.6.1-.3.4-.4.6-.3l1.2.4c.2 0 .3.2.3.3l.5 1.6 13 .9c.4 0 .9.3 1.1.6.3.4.3.8.2 1.3l-1.2 4.7c-.3 1.1-1.3 1.8-2.4 1.8zM-54 87.7l1.8 6.2c.2.6.8 1.1 1.4 1.1h7.1c.7 0 1.3-.5 1.4-1.1l1.2-4.7c0-.1 0-.3-.1-.4-.1-.1-.2-.2-.4-.2l-12.4-.9z"/>
  <path fill="#FFF" d="M-51.1 99c-1.1 0-2-.9-2-2s.9-2 2-2 2 .9 2 2-.9 2-2 2zm0-3c-.6 0-1 .4-1 1s.4 1 1 1 1-.4 1-1-.5-1-1-1zM-43.8 99c-1.1 0-2-.9-2-2s.9-2 2-2 2 .9 2 2-.9 2-2 2zm0-3c-.6 0-1 .4-1 1s.4 1 1 1 1-.4 1-1-.4-1-1-1z"/>
</svg>
