<svg xmlns="http://www.w3.org/2000/svg" viewBox="-57 84.3 19 14.7">
  <path fill="#FFF" d="M-41.5 99h-12c-.8 0-1.5-.7-1.5-1.5v-5c0-.3-.2-.5-.5-.5h-1c-.2 0-.4-.1-.5-.3-.1-.2 0-.4.2-.6l8.4-6.5c.5-.4 1.3-.4 1.8 0l8.4 6.5c.2.1.2.4.2.6-.1.2-.3.3-.5.3h-1c-.3 0-.5.2-.5.5v5c0 .8-.7 1.5-1.5 1.5zm-13.6-8c.6.2 1.1.8 1.1 1.4v5c0 .3.2.5.5.5h12c.3 0 .5-.2.5-.5v-5c0-.7.5-1.3 1.1-1.4l-7.3-5.7c-.2-.1-.4-.1-.6 0l-7.3 5.7z"/>
  <path fill="#FFF" d="M-46 98.5v-5c0-.3-.2-.5-.5-.5h-2c-.3 0-.5.2-.5.5v5h-1v-5c0-.8.7-1.5 1.5-1.5h2c.8 0 1.5.7 1.5 1.5v5h-1z"/>
</svg>
