<svg xmlns="http://www.w3.org/2000/svg" viewBox="-57 87 17 12">
  <path fill="#FFF" d="M-49 93.5h-4.5c-.3 0-.5-.2-.5-.5s.2-.5.5-.5h4.5c.3 0 .5.2.5.5s-.2.5-.5.5zM-49 91h-4.5c-.3 0-.5-.2-.5-.5s.2-.5.5-.5h4.5c.3 0 .5.2.5.5s-.2.5-.5.5z"/>
  <path fill="#FFF" d="M-41.5 99h-14c-.8 0-1.5-.7-1.5-1.5v-9c0-.8.7-1.5 1.5-1.5h14c.8 0 1.5.7 1.5 1.5v9c0 .8-.7 1.5-1.5 1.5zm-14-11c-.3 0-.5.2-.5.5v9c0 .3.2.5.5.5h14c.3 0 .5-.2.5-.5v-9c0-.3-.2-.5-.5-.5h-14z"/>
  <path fill="#FFF" d="M-43.5 96h-10c-.3 0-.5-.2-.5-.5s.2-.5.5-.5h10c.3 0 .5.2.5.5s-.2.5-.5.5z"/>
  <g>
    <path fill="#FFF" d="M-43.5 93.8h-2.6c-.3 0-.5-.2-.5-.5v-3c0-.3.2-.5.5-.5h2.6c.3 0 .5.2.5.5v3c0 .3-.2.5-.5.5zm-2.1-1h1.6v-2h-1.6v2z"/>
  </g>
</svg>
