<svg xmlns="http://www.w3.org/2000/svg" viewBox="-57 86.9 16.1 12.1">
  <path fill="#FFF" d="M-43.7 99h-10.6c-1.5 0-2.7-1.2-2.7-2.7v-6.7c0-1.5 1.2-2.7 2.7-2.7h10.7c1.5 0 2.7 1.2 2.7 2.7v6.7c-.1 1.5-1.3 2.7-2.8 2.7zm-10.6-11c-.9 0-1.7.8-1.7 1.7v6.7c0 .9.8 1.7 1.7 1.7h10.7c.9 0 1.7-.8 1.7-1.7v-6.7c0-.9-.8-1.7-1.7-1.7h-10.7z"/>
  <path fill="#FFF" d="M-41.2 90.4l-6.2 3.6c-.4.3-1 .4-1.6.4s-1.1-.1-1.6-.4l-6.2-3.6.5-.9 6.2 3.6c.6.3 1.6.3 2.1 0l6.2-3.6.6.9z"/>
  <path fill="#FFF" d="M-55.91 98.174l-.774-.632 4.3-5.268.774.632zM-42.13 98.193l-4.3-5.268.774-.632 4.3 5.267z"/>
</svg>
