<svg xmlns="http://www.w3.org/2000/svg" viewBox="-57 81.9 17.1 17.1">
  <path fill="#FFF" d="M-48.4 93c-1.4 0-2.5-1.1-2.5-2.5s1.1-2.5 2.5-2.5 2.5 1.1 2.5 2.5S-47 93-48.4 93zm0-4c-.8 0-1.5.7-1.5 1.5s.7 1.5 1.5 1.5 1.5-.7 1.5-1.5-.7-1.5-1.5-1.5z"/>
  <path fill="#FFF" d="M-47.7 99H-49c-.6 0-1.2-.5-1.2-1.2v-1c-.4-.1-.8-.3-1.2-.5h-.2l-.7.7c-.4.4-1.2.4-1.7 0l-1-1c-.5-.5-.5-1.2 0-1.7l.7-.7c.1-.1 0-.2 0-.2-.2-.3-.3-.7-.4-1 0-.1-.1-.1-.2-.1h-.9c-.6 0-1.2-.5-1.2-1.2v-1.3c0-.6.5-1.2 1.2-1.2h.9c.1 0 .1-.1.2-.1.1-.4.3-.7.4-1v-.2l-.7-.7c-.5-.5-.5-1.2 0-1.7l1-1c.4-.4 1.2-.4 1.7 0l.7.7c.1.1.1.1.2 0 .3-.2.7-.3 1-.4.1 0 .1-.1.1-.2v-.9c0-.6.5-1.2 1.2-1.2h1.3c.6 0 1.2.5 1.2 1.2v.9c0 .1.1.1.1.2.3.1.7.3 1 .4h.2l.7-.7c.4-.4 1.2-.4 1.7 0l1 1c.5.5.5 1.2 0 1.7l-.7.7c-.1.1 0 .2 0 .2.2.3.3.7.4 1 0 .1.1.1.2.1h.9c.6 0 1.2.5 1.2 1.2v1.3c0 .6-.5 1.2-1.2 1.2h-.9c-.1 0-.1.1-.2.1-.1.4-.3.7-.4 1v.2l.7.7c.5.5.5 1.2 0 1.7l-1 1c-.4.4-1.2.4-1.7 0l-.7-.7c-.1-.1-.1-.1-.2 0-.3.2-.7.3-1 .4-.1 0-.1.1-.1.2v.9c0 .7-.5 1.2-1.1 1.2zm-3.8-3.7c.2 0 .4 0 .6.1.4.2.9.4 1.3.5.2.1.4.3.4.5v1.4c0 .1.1.2.2.2h1.3c.1 0 .2-.1.2-.2v-.9c0-.5.3-1 .8-1.1.3-.1.6-.2.9-.4.5-.2 1-.2 1.4.2l.7.7c.1.1.2.1.2 0l1-1c.1-.1.1-.2 0-.2l-.7-.7c-.4-.4-.4-.9-.2-1.4.1-.3.3-.6.4-.9.2-.5.6-.8 1.1-.8h.9c.1 0 .2-.1.2-.2v-1.3c0-.1-.1-.2-.2-.2h-.9c-.5 0-1-.3-1.1-.8-.1-.3-.2-.6-.4-.9-.2-.5-.2-1 .2-1.4l.7-.7c.1-.1.1-.2 0-.2l-1-1c-.1-.1-.2-.1-.2 0l-.7.7c-.4.3-.9.4-1.4.2-.3-.1-.6-.3-.9-.4-.5-.2-.8-.6-.8-1.1v-.9c0-.1-.1-.2-.2-.2H-49c-.1 0-.2.1-.2.2v.9c0 .5-.3 1-.8 1.1-.3.1-.6.2-.9.4-.5.2-1 .2-1.4-.2l-.7-.7c-.1-.1-.2-.1-.2 0l-1 1c-.1.1-.1.2 0 .2l.7.7c.4.4.4.9.2 1.4-.1.3-.3.6-.4.9-.2.5-.6.8-1.1.8h-.9c-.1 0-.2.1-.2.2v1.3c0 .1.1.2.2.2h.9c.5 0 1 .3 1.1.8.1.3.2.6.4.9.2.5.2 1-.2 1.4l-.7.7c-.1.1-.1.2 0 .2l1 1c.1.1.2.1.2 0l.7-.7c.2-.2.5-.3.8-.3z"/>
</svg>
