<?xml version="1.0" standalone="no"?>
<!DOCTYPE svg PUBLIC "-//W3C//DTD SVG 20010904//EN"
 "http://www.w3.org/TR/2001/REC-SVG-20010904/DTD/svg10.dtd">
<svg version="1.0" xmlns="http://www.w3.org/2000/svg"
 width="16.000000pt" height="16.000000pt" viewBox="0 0 16.000000 16.000000"
 preserveAspectRatio="xMidYMid meet">
<metadata>
Created by potrace 1.11, written by Peter Selinger 2001-2013
</metadata>
<g transform="translate(0.000000,16.000000) scale(0.002963,-0.002963)"
fill="#000000" stroke="none">
<path d="M405 4090 c-1 -3 -2 -630 -1 -1395 l1 -1390 203 0 c174 0 202 2 202
15 0 8 1 167 1 353 l1 338 97 -3 c94 -3 96 -3 99 -28 5 -37 39 -143 66 -203
31 -68 87 -149 145 -211 50 -53 153 -136 169 -136 6 0 12 -3 14 -7 9 -21 178
-88 246 -99 21 -3 40 -8 44 -10 11 -7 208 -6 253 1 173 27 352 121 472 248
362 383 279 999 -171 1273 -222 135 -490 158 -736 61 -67 -26 -200 -111 -256
-163 -101 -95 -184 -228 -224 -361 -12 -40 -25 -73 -28 -74 -9 -1 -120 -1
-159 0 l-31 1 -1 853 c0 468 0 872 0 897 l-1 45 -201 0 c-110 0 -202 -2 -204
-5z m1544 -1564 c295 -105 380 -473 159 -688 -141 -138 -347 -159 -513 -53
-221 141 -255 453 -69 638 54 53 145 103 214 116 62 11 156 5 209 -13z"/>
<path d="M2739 4090 c-1 -7 -1 -2739 0 -2765 1 -19 8 -20 204 -20 l202 0 2
1189 c1 653 4 1190 6 1192 3 3 127 5 276 6 l271 0 1 27 c1 39 1 322 0 351 l-1
25 -480 0 c-264 0 -480 -2 -481 -5z"/>
<path d="M1875 4066 c-161 -60 -236 -163 -222 -304 3 -31 9 -67 13 -79 9 -32
-8 -29 -50 7 -35 31 -64 83 -76 135 l-7 30 -21 -47 c-46 -103 -49 -221 -8
-300 l26 -49 -23 7 c-48 14 -76 63 -78 131 l-1 38 -19 -42 c-30 -64 -36 -120
-24 -203 32 -226 227 -393 458 -392 236 1 427 173 455 412 8 69 0 105 -12 56
-8 -31 -53 -86 -71 -86 -11 0 -9 11 6 46 36 80 33 184 -8 273 l-15 33 -19 -41
c-17 -38 -61 -72 -75 -58 -4 3 1 24 10 47 19 47 21 133 4 181 -14 41 -59 111
-66 104 -3 -3 -7 -24 -9 -46 -8 -100 -107 -141 -156 -65 -24 35 -21 84 8 161
13 36 21 64 17 64 -4 -1 -21 -6 -37 -13z"/>
<path d="M4050 2944 c-325 -55 -585 -297 -665 -619 -34 -135 -24 -331 23 -465
156 -447 660 -671 1096 -490 198 83 353 237 442 439 18 41 31 78 29 82 -3 4
-103 7 -222 6 l-218 0 -51 -52 c-252 -257 -690 -94 -709 262 -15 276 239 489
507 427 108 -25 224 -112 265 -199 9 -19 19 -36 22 -36 20 -4 423 -4 426 1 6
10 -42 146 -74 209 -42 84 -71 122 -156 207 -80 80 -131 117 -227 163 -143 68
-327 92 -488 65z"/>
</g>
</svg>
