<svg xmlns="http://www.w3.org/2000/svg" width="128" height="128" viewBox="0 0 128 128">
  <path opacity=".63" fill="#3C62B8" d="M38.5 109.4h33.2V126H38.5z"/>
  <path fill="#DF252A" d="M35.3 41.8L15.6 61.5l11.2 11.2h9.6c3.1 0 5.5 2.5 5.5 5.5 0 2.6-1.8 4.8-4.2 5.4l8 8 19.7-19.7-30.1-30.1z"/>
  <path fill="#3D3D3D" d="M15.8 46.7c.4 0 .9-.2 1.2-.5l3.4-3.4c.7-.7.7-1.7 0-2.4s-1.7-.7-2.4 0l-3.4 3.4c-.7.7-.7 1.7 0 2.4.4.3.8.5 1.2.5zM57 89c.4 0 .9-.2 1.2-.5l3.4-3.4c.7-.7.7-1.7 0-2.4s-1.7-.7-2.4 0l-3.4 3.4c-.7.7-.7 1.7 0 2.4.4.4.8.5 1.2.5z"/>
  <path fill="#3D3D3D" d="M76.8 76.8c0-1.5-.6-2.9-1.6-3.9l-.9-.9c1.6-1.4 2.6-3.5 2.6-5.7 0-4.2-3.4-7.6-7.6-7.6-.3 0-.6 0-.9.1 0-.3.1-.6.1-.9 0-4.2-3.4-7.6-7.6-7.6-.3 0-.6 0-.9.1 0-.3.1-.6.1-.9 0-4.2-3.4-7.6-7.6-7.6-.3 0-.6 0-.9.1 0-.3.1-.6.1-.9 0-4.2-3.4-7.6-7.6-7.6-2.2 0-4.3 1-5.7 2.6l-1.3-1.3-6.7-6.8c-2.2-2.2-5.7-2.2-7.9 0L1.6 48.9c-2.2 2.2-2.2 5.7 0 7.9L8 63.1l8.3 8.3c-2.3 1.3-3.9 3.8-3.9 6.6 0 2.6 1.4 5 3.4 6.3.1.1.2.3.4.4l18.2 18.1v3H31v22h44v-22h-3.4v-5.1c3.2-2.7 5.1-6.7 5.1-11 0-2.9-.9-5.8-2.6-8.2l1-1c1.1-.8 1.7-2.2 1.7-3.7zm-3.4-10.6c0 1.3-.6 2.5-1.6 3.3l-5.9-5.9c.8-1 2-1.6 3.3-1.6 2.3-.1 4.2 1.8 4.2 4.2zM65 57.7c0 1.3-.6 2.5-1.6 3.3l-5.9-5.9c.8-1 2-1.6 3.3-1.6 2.3 0 4.2 1.9 4.2 4.2zm-8.5-8.5c0 1.3-.6 2.5-1.6 3.3L49 46.6c.8-1 2-1.6 3.3-1.6 2.3 0 4.2 1.9 4.2 4.2zM43.8 36.5c2.3 0 4.2 1.9 4.2 4.2 0 1.3-.6 2.5-1.6 3.3l-5.9-5.9c.8-1 2-1.6 3.3-1.6zM4 54.4c-.9-.9-.9-2.2 0-3.1l20.9-20.9c.2-.2.5-.4.7-.5.1 0 .3 0 .4-.1.3-.1.6-.1.9 0 .1 0 .3 0 .4.1.3.1.5.3.7.5l4 4-24 24-4-4zm30.3-17.6l2 2 8.5 8.5 1 1 7.5 7.5 1 1 7.5 7.5 1 1 8.5 8.5 1.6 1.6c.9.9.9 2.2 0 3.1l-.9.6-20.1 20.1c-.9.9-2.2.9-3.1 0L35.3 85.7H37c4.2 0 7.6-3.4 7.6-7.6 0-4.2-3.4-7.6-7.6-7.6H20.1l-9.7-9.7 23.9-24zM19.2 73.9l.7-.1H37c2.3 0 4.2 1.9 4.2 4.2 0 2.3-1.9 4.2-4.2 4.2H20c-2.3 0-4.2-1.9-4.2-4.2 0-2 1.5-3.7 3.4-4.1zm15.3 50.7v-15.2h14.3c5.2 0 9.4 4.2 9.4 9.4v5.8H34.5zm37.2 0H61.6v-5.8c0-3.7-1.6-7.1-4.2-9.4h14.3v15.2zm.1-40.5c1.1 1.7 1.7 3.7 1.7 5.8 0 3.5-1.6 6.7-4.4 8.8l-.7.5v6.8H37.9v-4.6l-.6-.5c-.1-.1-.2-.1-.3-.2l-15-15h8.6l15.9 15.9c1.1 1.1 2.5 1.6 3.9 1.6s2.9-.5 3.9-1.6l17.5-17.5z"/>
  <path fill="#3D3D3D" d="M36.8 70.2H20.2c-4.3 0-7.7 3.5-7.7 7.7 0 4.3 3.5 7.7 7.7 7.7h16.6c4.3 0 7.7-3.5 7.7-7.7.1-4.2-3.4-7.7-7.7-7.7zm.3 12H19.9c-2.4 0-4.3-1.9-4.3-4.3s1.9-4.3 4.3-4.3h17.2c2.4 0 4.3 1.9 4.3 4.3-.1 2.4-2 4.3-4.3 4.3zM48.4 115h4.9v4.9h-4.9z"/>
</svg>
