<svg xmlns="http://www.w3.org/2000/svg" width="128" height="128" viewBox="0 0 128 128">
  <path fill="#DF252A" d="M82.837 61.117l10.89-10.89L111.898 68.4l-10.89 10.89z"/>
  <path opacity=".63" fill="#3C62B8" d="M13.317 80.742l-10.89-10.89 20.648-20.647 10.89 10.89z"/>
  <path fill="#3D3D3D" d="M113.6 66.8L91.4 44.6c-.7-.7-1.9-.7-2.6 0l-11 11.1c-.3.3-.5.8-.5 1.3s.2.9.5 1.3l1.1 1.1-2.5 2.5C74.7 63.6 72.2 64 70 63c-2-.9-4.3-1.4-6.5-1.4-2.6 0-5.2.7-7.5 1.9-1-.2-1.9-.4-2.9-.4-1.4 0-2.8.2-4.2.7-2.2.8-4.5.3-6-1.3l-4.6-4.6.5-.5c.3-.3.5-.8.5-1.3s-.2-.9-.5-1.3L27.7 43.9c-.7-.7-1.9-.7-2.6 0L.5 68.6c-.7.7-.7 1.9 0 2.6l11.1 11.1c.3.3.8.5 1.3.5s.9-.2 1.3-.5l.7-.7 3.2 3.2c.8.8 1.3 1.8 1.6 2.9 1.1 5.7 3.8 10.9 7.9 15l.6.6c-1.2 1.2-1.8 2.8-1.8 4.5 0 1.8.7 3.4 1.9 4.6 1.3 1.3 3 1.9 4.6 1.9h.3c-.1 1.8.5 3.6 1.9 5 1.2 1.2 2.9 1.9 4.6 1.9h.1c0 1.7.6 3.5 1.9 4.8 1.2 1.2 2.9 1.9 4.6 1.9 1.8 0 3.4-.7 4.6-1.9l.3-.3c.6.2 1.3.3 2 .3 1.6 0 3.2-.6 4.3-1.8.6-.6 1.1-1.3 1.4-2.1l.2.2c1.2 1.2 2.8 1.8 4.3 1.8 1.6 0 3.1-.6 4.3-1.8.6-.6 1.1-1.4 1.4-2.2 1.1.8 2.3 1.2 3.6 1.2 1.6 0 3.1-.6 4.3-1.8 1.2-1.2 1.8-2.7 1.8-4.3 0-.5-.1-1-.2-1.4 1.2-.2 2.2-.8 3.1-1.7 1.2-1.2 1.8-2.7 1.8-4.3 0-1.3-.4-2.5-1.1-3.5l1.5-1.5c4.2-4.2 6.9-9.4 8-15.2.2-1 .7-1.9 1.4-2.6l5.4-5.4 1 1c.4.4.8.5 1.3.5s.9-.2 1.3-.5l11.1-11.1c.3-.3.5-.8.5-1.3.2-.6 0-1.1-.3-1.4zM12.9 78.4l-8.5-8.5 22.1-22.1 8.5 8.5-22.1 22.1zM35 109.9c-1.1 1.1-3 1.1-4.1 0-.6-.6-.9-1.3-.9-2.1s.3-1.5.9-2.1c.6-.6 1.3-.9 2.1-.9.7 0 1.5.3 2.1.9 1 1.2 1 3.1-.1 4.2zm6.8 6.9c-.6.6-1.3.9-2.1.9s-1.5-.3-2.1-.9c-1.1-1.1-1.1-3 0-4.1.6-.6 1.3-.9 2.1-.9.7 0 1.5.3 2.1.9 1.2 1.1 1.2 3 0 4.1zm6.7 6.7c-.6.6-1.3.9-2.1.9s-1.5-.3-2.1-.9c-1.1-1.1-1.1-3 0-4.1.6-.6 1.3-.9 2.1-.9.7 0 1.5.3 2.1.9 1.2 1.1 1.2 3 0 4.1zm31-14c-.5.5-1.1.7-1.8.7s-1.3-.3-1.8-.7L58.3 91.8c-.7-.7-1.9-.7-2.6 0-.7.7-.7 1.9 0 2.6l19 19c.5.5.7 1.1.7 1.8s-.3 1.3-.7 1.8c-1 1-2.5 1-3.5 0l-3.2-3.2-.1-.1-14.7-14.8c-.7-.7-1.9-.7-2.6 0-.7.7-.7 1.9 0 2.6l14.8 14.8c.5.5.7 1.1.7 1.7 0 .7-.3 1.3-.7 1.8-1 1-2.5 1-3.5 0l-16.1-16.1c-.7-.7-1.9-.7-2.6 0-.7.7-.7 1.9 0 2.6l11.9 11.9c.5.5.7 1.1.7 1.8s-.3 1.3-.7 1.8c-.5.5-1.1.7-1.8.7h-.5c.3-2-.3-4.1-1.8-5.6-1.2-1.2-2.9-1.9-4.6-1.9h-.1c0-1.7-.6-3.5-1.9-4.8-1.2-1.2-2.9-1.9-4.6-1.9h-.3c.1-1.8-.5-3.6-1.9-5-1.7-1.7-4-2.2-6.1-1.7l-1.3-1.3c-3.6-3.6-6-8.1-6.9-13.1-.3-1.8-1.2-3.5-2.6-4.8L17.4 79l18.3-18.3 4.6 4.6c1.8 1.8 4.1 2.7 6.6 2.7 1.1 0 2.2-.2 3.3-.6.5-.2 1.1-.3 1.6-.4L40.4 78.3c-1.4 1.4-2.1 3.2-2.1 5.2s.8 3.8 2.1 5.2c1.4 1.4 3.3 2.1 5.2 2.1 1.9 0 3.7-.7 5.2-2.1l5.7-5.7 1.5 1.5.1.1.1.1.1.1L79.5 106c.5.5.7 1.1.7 1.8 0 .6-.3 1.2-.7 1.7zM91 82.3c-1.3 1.3-2.1 2.8-2.4 4.5-.9 5.1-3.3 9.7-7 13.3l-1.4 1.4L68.7 90h.8c1.2 0 2.4-.2 3.6-.7.9-.4 1.4-1.4 1-2.4-.4-.9-1.4-1.4-2.4-1-4.7 1.9-10.3-3.4-10.9-4l-.1-.1-.1-.1-1.6-1.4 1.7-1.7c.7-.7.7-1.9 0-2.6-.7-.7-1.9-.7-2.6 0l-3 3-7 7c-1.4 1.4-3.8 1.4-5.2 0-.7-.7-1.1-1.6-1.1-2.6s.4-1.9 1.1-2.6l12-12c.7-.7 1.4-1.3 2.2-1.7 1.9-1.2 4.1-1.8 6.3-1.8 1.7 0 3.4.4 5 1.1 3.5 1.6 7.7.9 10.4-1.9l2.5-2.5 14.9 14.9-5.2 5.4zm10.2-5.7L81.7 57l8.5-8.5 19.6 19.6-8.6 8.5z"/>
  <path fill="#3D3D3D" d="M98.08 68.694l2.9-2.9 2.898 2.9-2.9 2.9zM9.802 70.36l2.9-2.9 2.898 2.9-2.9 2.9z"/>
</svg>
