<svg xmlns="http://www.w3.org/2000/svg" width="128" height="128" viewBox="0 0 128 128">
  <path fill="#FFF" d="M3.2 91.9h4.2v3.3H3.2z"/>
  <path opacity=".63" fill="#3C62B8" d="M32.5 68.5c-1.8-1.7-4.1-2.7-6.6-2.7l-7.5 7.5-7.4-7.6c-5.2 0-9.4 4.2-9.4 9.4v16.8H9v6.5h18.7v-6.5h7.5V75.1c0-2.5-1-4.9-2.7-6.6z"/>
  <path fill="#3D3D3D" d="M33.6 75.1v16.8h3.2V75c0-6-4.9-10.9-10.9-10.9h-15C4.9 64.1 0 69 0 75v23.4h9.1v-3.3H3.3v-20c0-4.2 3.4-7.7 7.7-7.7h14.9c4.2 0 7.7 3.4 7.7 7.7zM17.5 44.3c-3.9 0-7 3.1-7 7s3.1 7.1 7 7.1c3.8 0 7-3.1 7-7s-3.1-7.1-7-7.1zm0 17.4c-5.6 0-10.2-4.6-10.2-10.4 0-5.7 4.6-10.4 10.2-10.4s10.2 4.6 10.2 10.4c0 5.8-4.6 10.4-10.2 10.4zM16.8 101.8h3.3v26.1h-3.3z"/>
  <path fill="#3D3D3D" d="M7.4 91.8h3.3v36.1H7.4z"/>
  <path fill="#FFF" d="M3.3 91.9h4.1v3.3H3.3z"/>
  <path fill="#3D3D3D" d="M26 91.9h3.4v36H26zM16.7 77.3h3.4v3.4h-3.4zM16.7 83.1h3.4v3.4h-3.4z"/>
  <path fill="#FFF" d="M94 91.9h4.2v3.3H94z"/>
  <path opacity=".63" fill="#3C62B8" d="M68.9 68.5c1.8-1.7 4.1-2.7 6.6-2.7l7.5 7.5 7.5-7.5c5.2 0 9.4 4.2 9.4 9.4V92h-7.5v6.5H73.7V92h-7.5V75.1c0-2.5 1-4.9 2.7-6.6z"/>
  <path fill="#3D3D3D" d="M67.9 75.1v16.8h-3.2V75c0-6 4.9-10.9 10.9-10.9h14.9c6 0 10.9 4.9 10.9 10.9v23.4h-9.1v-3.3h5.8v-20c0-4.2-3.4-7.7-7.7-7.7H75.5c-4.2 0-7.6 3.4-7.6 7.7zM83.9 44.3c-3.9 0-7 3.2-6.9 7.1 0 3.9 3.1 7 7 7s7-3.2 7-7.1c-.1-3.9-3.2-7-7.1-7zm0 17.4c-5.6 0-10.2-4.6-10.2-10.3 0-5.7 4.6-10.4 10.2-10.4s10.2 4.6 10.2 10.4c0 5.7-4.5 10.3-10.2 10.3zM81.4 101.8h3.3v26.1h-3.3z"/>
  <path fill="#3D3D3D" d="M90.7 91.8H94v36.1h-3.3z"/>
  <path fill="#FFF" d="M94 91.9h4.1v3.3H94z"/>
  <path fill="#3D3D3D" d="M72 91.9h3.4v36H72zM81.3 77.5h3.4v3.4h-3.4zM81.3 83.3h3.4v3.4h-3.4zM7.4 125h22v4h-22z"/>
  <path fill="#3D3D3D" d="M72 125h21.9v4H72z"/>
  <path fill="#DF252A" d="M67.2 57.9c-2.1-2.1-4.9-3.2-7.8-3.2l-8.8 8.8-8.8-8.8c-6.1 0-11.1 4.9-11.1 11.1v19.8h8.8v7.7h22v-7.7h8.8V65.7c0-2.9-1.1-5.7-3.1-7.8z"/>
  <g>
    <path fill="#3D3D3D" d="M48.6 97.2h3.9V128h-3.9z"/>
  </g>
  <g>
    <path fill="#3D3D3D" d="M37.6 85.5h3.9V128h-3.9z"/>
  </g>
  <g>
    <path fill="#3D3D3D" d="M59.6 85.5h3.9V128h-3.9z"/>
  </g>
  <g>
    <path fill="#3D3D3D" d="M72.3 93.3H61.6v-3.9h6.9V65.7c0-5-4-9-9-9H41.8c-5 0-9 4-9 9v23.7h6.9v3.9H28.9V65.7c0-7.1 5.8-12.9 12.9-12.9h17.6c7.1 0 12.9 5.8 12.9 12.9v27.6z"/>
  </g>
  <g>
    <path fill="#3D3D3D" d="M48.6 67.2h3.9v3.9h-3.9z"/>
  </g>
  <g>
    <path fill="#3D3D3D" d="M48.6 74.9h3.9v3.9h-3.9z"/>
  </g>
  <path fill="#FFF" d="M32.7 85.5h5v3.9h-5zM63.5 85.5h4.9v3.9h-4.9z"/>
  <path fill="#3D3D3D" d="M39.6 125.3h22v3.7h-22zM49.6 50.4c-6.5 0-11.7-5.3-11.7-11.7S43.2 27 49.6 27s11.7 5.3 11.7 11.7-5.2 11.7-11.7 11.7zm0-20c-4.6 0-8.3 3.7-8.3 8.3S45 47 49.6 47s8.3-3.7 8.3-8.3-3.7-8.3-8.3-8.3z"/>
</svg>
