<svg xmlns="http://www.w3.org/2000/svg" width="128" height="128" viewBox="0 0 128 128">
  <path fill="none" d="M0 20.2h120.3v120.3H0z"/>
  <path fill="none" d="M0 20.2h120.3v120.3H0z"/>
  <path fill="none" d="M0 20.2h120.3v120.3H0z"/>
  <path opacity=".63" fill="#3C62B8" d="M17.3 34.1C7.7 34.1 0 41.8 0 51.3c.1 3.8 1.3 7.5 3.6 10.5L17.3 81 31 61.9c2.3-3 3.5-6.7 3.6-10.5-.1-9.6-7.8-17.3-17.3-17.3z"/>
  <path fill="none" d="M0 20.2h120.3v120.3H0z"/>
  <path fill="#FFF" d="M17.3 46.7c-2.8 0-5 2.3-5 5 0 2.8 2.3 5 5 5 2.8 0 5-2.2 5-5s-2.3-5-5-5zm0 14.7c-5.3 0-9.6-4.3-9.6-9.6s4.3-9.6 9.6-9.6 9.6 4.3 9.6 9.6c0 5.2-4.3 9.6-9.6 9.6z"/>
  <path fill="none" d="M1.7 19.3H122v120.3H1.7z"/>
  <path fill="#3D3D3D" d="M19.4 89.8h-4.6v-4.7h4.6v4.7zm9.1 0H24v-4.7h4.6v4.7zm9.2 0h-4.5v-4.7h4.6l-.1 4.7zm7.2 1.2c-.8-.7-1.8-1.1-2.8-1.2l.4-4.6c2 .2 3.9 1 5.4 2.3l-3 3.5zm5.7 7.4l-4.3-1.7c.2-.6.3-1.2.3-1.8 0-.4-.1-.8-.2-1.2l4.5-1.1c.2.8.3 1.6.3 2.4.1 1-.1 2.2-.6 3.4zm-23 6.2H23v-4.7h4.6v4.7zm9.1 0h-4.6v-4.7h4.7l-.1 4.7zm4.9 0h-.2v-4.7h.3c1 0 2-.3 2.8-.8L47 103c-1.6 1-3.5 1.5-5.4 1.6zm-27.5 0l-.5-4.6c.6-.1 1.2-.1 1.7-.1h3.2v4.6h-3.2c-.4 0-.8.1-1.2.1zm-6.3 3.5l-3.5-3c1.2-1.4 2.6-2.6 4.2-3.5l2.2 4.1c-1.1.6-2 1.4-2.9 2.4zM1 115.3v-.9c0-1.5.2-3 .7-4.4l4.4 1.4c-.3 1-.5 2-.5 3v.6l-4.6.3zm4.5 9.6c-1.3-1.2-2.4-2.7-3.2-4.4l4.2-2c.5 1.1 1.3 2.1 2.2 3l-3.2 3.4zm9.9 3.8h-.1c-1.8 0-3.6-.3-5.2-1l1.7-4.3c1.1.4 2.3.6 3.5.6h.1v4.7zm9.2 0H20V124h4.6v4.7zm9.1 0h-4.6V124h4.6v4.7zm9.1 0h-4.6V124h4.6v4.7zm9.2 0h-4.6V124H52v4.7zm9.1 0h-4.6V124h4.6v4.7zm9.2 0h-4.6V124h4.6v4.7z"/>
  <path fill="#DF252A" d="M114 80.9c0 6.2-2.1 12-5.6 16.6-5 6.7-22.1 30.6-22.1 30.6s-15-22-19.5-27.7c-4.4-5.5-8.1-11.9-8.1-19.5 0-15.3 12.4-27.6 27.6-27.6S114 65.6 114 80.9z"/>
  <circle fill="#FFF" cx="86.4" cy="80.9" r="17.9"/>
  <circle fill="#DF252A" cx="86.4" cy="80.9" r="9.6"/>
</svg>
