<svg xmlns="http://www.w3.org/2000/svg" width="128" height="128" viewBox="0 0 128 128">
  <path fill="#DF252A" d="M44.5 100.4H23.9L9 115.9c-1.7 1.7-.4 4.6 2 4.6h46.8c2.4 0 3.7-2.9 2-4.7l-15.3-15.4z"/>
  <path fill="#3D3D3D" d="M31.5 16.4h4.9v93.2h-4.9z"/>
  <path fill="#3D3D3D" d="M44.3 73.2H23.4c-3.7 0-6.7-3-6.7-6.7v-2.4c0-3.7 3-6.7 6.7-6.7h20.8c3.7 0 6.7 3 6.7 6.7v2.4c.1 3.7-2.9 6.7-6.6 6.7zM23.4 62.3c-1 0-1.8.8-1.8 1.8v2.4c0 1 .8 1.8 1.8 1.8h20.8c1 0 1.8-.8 1.8-1.8v-2.4c0-1-.8-1.8-1.8-1.8H23.4z"/>
  <path fill="#3D3D3D" d="M22.6 72.2h4.9v19.3h-4.9zM40.4 72.2h4.9v19.3h-4.9z"/>
  <path fill="#3D3D3D" d="M65.5 109.9L40.4 84.3v7.1l21.6 22c2 2 1.9 4.5 1.2 6.2-.7 1.7-2.5 3.5-5.3 3.5H10.7c-2.4 0-4.3-1.3-5.2-3.5-.9-2.2-.5-4.5 1.1-6.2l21-21.9v-7.1L3 110c-3 3.1-3.8 7.6-2.1 11.5 1.7 4 5.5 6.5 9.8 6.5H58c4.4 0 8.1-2.5 9.8-6.5s.8-8.5-2.3-11.6z"/>
  <circle opacity=".63" fill="#3C62B8" cx="18.6" cy="29.2" r="8.5"/>
  <circle opacity=".63" fill="#3C62B8" cx="47.6" cy="33.2" r="7.1"/>
  <circle opacity=".63" fill="#3C62B8" cx="22.6" cy="48.2" r="4.9"/>
  <circle opacity=".63" fill="#3C62B8" cx="43.6" cy="50.2" r="2.9"/>
</svg>
