<svg xmlns="http://www.w3.org/2000/svg" width="128" height="128" viewBox="0 0 128 128">
  <path opacity=".63" fill="#3C62B8" d="M12.9 63.7H22V99h-9.1zM43.8 63.7h9.1V99h-9.1z"/>
  <path fill="#DF252A" d="M84.5 72.6h22.6v46.9H84.5z"/>
  <path fill="#3D3D3D" d="M118.4 124.2V64.8c0-1.1-.9-2.1-2.1-2.1H114V56c0-1.1-.9-2.1-2.1-2.1H94.2V45c0-1.1-.9-2.1-2.1-2.1S90 43.8 90 45v8.9h-8.9c-1.1 0-2.1.9-2.1 2.1v6.7h-2.3c-1.1 0-2.1.9-2.1 2.1v41.9h-9.1V60.4c0-.4-.1-.8-.3-1.1l-4.4-6.6c-.4-.6-1-.9-1.7-.9h-4.5v-2.3c0-3.6-2.9-6.5-6.5-6.5h-22c-3.6 0-6.5 2.9-6.5 6.5v2.3h-4.5c-.7 0-1.3.3-1.7.9L9 59.3c-.2.3-.3.7-.3 1.1v46.3H2.1c-1.1 0-2.1.9-2.1 2.1v19.6h118.5l-.1-4.2zM43.7 97.9V64.7h17.8v33.2H43.7zm17.9 4.1v4.7H43.7V102h17.9zm-3.5-46.1l3.1 4.7H44l3.1-4.7h11zm-34.2-6.5c0-1.3 1-2.3 2.3-2.3h22c1.3 0 2.3 1 2.3 2.3v2.3H46c-.7 0-1.3.3-1.7.9l-4.4 6.6c-.2.3-.3.7-.3 1.1v46.3h-4.7V60.4c0-.4-.1-.8-.3-1.1l-4.4-6.6c-.4-.6-1-.9-1.7-.9H24v-2.4zm-7.5 6.5h11l3.1 4.7H13.3l3.1-4.7zm-3.5 8.8h17.8v33.2H12.9V64.7zm0 37.3h17.8v4.7H12.9V102zm61.8 22.2H4.2v-13.5h70.6v13.5zm19.5-66.1h15.7v4.7H94.2v-4.7zm-11 0h6.9v4.7h-6.9v-4.7zm.3 17.7v48.5h-4.7V66.9h11.3v4.5c0 .1-.1.1-.1.1h-2.2c-2.4 0-4.3 1.9-4.3 4.3zm30.8-4.3H111v4.1h3.3v4.7H111v4.1h3.3v4.7H111v4.1h3.3v4.7H111v4.1h3.3v4.7H111v4.1h3.3v4.7H111v4.1h3.3v4.7H87.6V75.8c0-.1.1-.1.1-.1H90c2.3 0 4.3-1.9 4.3-4.3v-4.5h20v4.6z"/>
  <g fill="#3D3D3D">
    <path d="M9.7 115.3h4v4h-4zM16.6 115.3h4v4h-4zM23.6 115.3h4v4h-4zM30.6 115.3h4v4h-4zM37.6 115.3h4v4h-4zM44.6 115.3h4v4h-4zM51.5 115.3h4v4h-4zM58.5 115.3h4v4h-4zM65.5 115.3h4v4h-4z"/>
  </g>
</svg>
