<svg xmlns="http://www.w3.org/2000/svg" width="128" height="128" viewBox="0 0 128 128">
  <path opacity=".63" fill="#3C62B8" d="M112.3 60.5l.2 69.2-99 .3-1.1-21 4.9-3.5 5.2.4L34.7 85l10.7 5.9 5.9-8.8 6.4-.8s7-5.6 7.8-7.5l7.7 5.8 8.5-7.7 7.2 1.2L101 55.7l11.3 4.8z"/>
  <path fill="#FFF" d="M112.4 87.5V123H12.8v-8.2l4.3-3 5.9 3.1 11.5-10.7 10.2 5.1 7.9-9 5.6-1.2s5.6-5 6.6-6.8l6.6 4.5 2.6.3 8.2-5.8h7.2l11.2-8 11.8 4.2z"/>
  <path fill="#FFF" d="M112.6 85.7V123H12.3v-8.6l4.3-3.2 6 3.2 11.6-11.2 10.3 5.3 7.9-9.5 5.6-1s5.6-5.3 6.6-7.2l9.3 5.1 8.3-6.1h7.3l11.2-8.4 11.9 4.3z"/>
  <path fill="#DF252A" d="M112.4 104v21.5H12.8v-4.2l5.3-.4 6.2-.9 9.9-7.5 11.5 3.7 6.9-2.8 11.5-6 8.5 6 7.9-6 8.2-1.3 11.8-7.3c.1-.1 8.3 6.1 11.9 5.2z"/>
  <path fill="#3D3D3D" d="M17.7 53.8h7.1v4h-7.1zM29.1 53.8h23.7v4H29.1zM17.7 60.8h24.2v4H17.7zM7.9 123h104.5v5H7.9z"/>
  <path fill="#3D3D3D" d="M7.9 53.8h4.9V128H7.9zM0 123.9h4.1v4.1H0zM0 116.9h4.1v4.1H0zM0 109.9h4.1v4.1H0zM0 102.9h4.1v4.1H0zM0 95.9h4.1v4.1H0zM0 88.9h4.1V93H0zM0 81.9h4.1V86H0zM0 74.9h4.1V79H0zM0 67.9h4.1V72H0zM0 60.9h4.1V65H0zM0 53.9h4.1V58H0z"/>
</svg>
