<svg xmlns="http://www.w3.org/2000/svg" width="128" height="128" viewBox="0 0 128 128">
  <path fill="#3D3D3D" d="M68.2 128H25.8c-3 0-5.5-2.5-5.5-5.5v-81c0-3 2.5-5.5 5.5-5.5h42.4c3 0 5.5 2.5 5.5 5.5v81c0 3-2.5 5.5-5.5 5.5zM25.8 39.7c-1 0-1.8.8-1.8 1.8v81c0 1 .8 1.8 1.8 1.8h42.4c1 0 1.8-.8 1.8-1.8v-81c0-1-.8-1.8-1.8-1.8H25.8z"/>
  <path fill="#3D3D3D" d="M20.4 50.2h52.9v3.7H20.4zM50.3 46.8h-6.8c-1 0-1.8-.8-1.8-1.8s.8-1.8 1.8-1.8h6.8c1 0 1.8.8 1.8 1.8s-.8 1.8-1.8 1.8zM50.3 119.8h-6.8c-1 0-1.8-.8-1.8-1.8s.8-1.8 1.8-1.8h6.8c1 0 1.8.8 1.8 1.8s-.8 1.8-1.8 1.8z"/>
  <path fill="#DF252A" d="M28.3 59.2h37.8v51.6H28.3z"/>
  <path fill="#FFF" d="M96.8 85h-5.6v6.8L81.4 85H59V59.9h37.8"/>
  <path fill="#3D3D3D" d="M93 95.3l-12.2-8.5H57.1V58h41.5v28.8H93v8.5zM60.8 83.2h21.1l7.4 5.1v-5.1h5.6V61.7H60.8v21.5z"/>
  <path opacity=".63" fill="#3C62B8" d="M63.4 64.2h29.2v16.3H63.4z"/>
  <path fill="#FFF" d="M1.6 100.2h4.7v5.8l8.3-5.8h19V78.9h-32"/>
  <path opacity=".63" fill="#3C62B8" d="M5.7 82.5h23.9v13.8H5.7z"/>
  <path fill="#3D3D3D" d="M4.7 101.8H0V77.4h35.2v24.4H15.1L4.7 109v-7.2zM32 80.5H3.1v18.2h4.7v4.4l6.3-4.4H32V80.5z"/>
  <g fill="#3D3D3D">
    <path d="M10.3 87.7h3.6v3.5h-3.6zM15.6 87.7h3.6v3.5h-3.6zM21 87.7h3.6v3.5H21z"/>
  </g>
  <g fill="#3D3D3D">
    <path d="M70.8 70.6h3.6v3.5h-3.6zM76.2 70.6h3.6v3.5h-3.6zM81.6 70.6h3.6v3.5h-3.6z"/>
  </g>
</svg>
