<svg xmlns="http://www.w3.org/2000/svg" width="128" height="128" viewBox="0 0 128 128">
  <path fill="#DF252A" d="M18.7 70.9h52.8v28.2H18.7z"/>
  <circle opacity=".63" fill="#3C62B8" cx="42.1" cy="116.3" r="8.3"/>
  <path fill="#3D3D3D" d="M42.4 128c-6.3 0-11.5-5.2-11.5-11.5S36 105 42.4 105s11.5 5.2 11.5 11.5S48.7 128 42.4 128zm0-19c-4.2 0-7.5 3.4-7.5 7.5 0 4.2 3.4 7.5 7.5 7.5s7.5-3.4 7.5-7.5c0-4.2-3.4-7.5-7.5-7.5z"/>
  <path fill="#FFF" d="M40.4 114.5h3.8v4h-3.8z"/>
  <circle opacity=".63" fill="#3C62B8" cx="108.6" cy="116.8" r="8.8"/>
  <path fill="#3D3D3D" d="M108 128c-6.3 0-11.5-5.2-11.5-11.5S101.7 105 108 105s11.5 5.2 11.5 11.5S114.3 128 108 128zm0-19c-4.2 0-7.5 3.4-7.5 7.5 0 4.2 3.4 7.5 7.5 7.5 4.2 0 7.5-3.4 7.5-7.5 0-4.2-3.3-7.5-7.5-7.5z"/>
  <path fill="#FFF" d="M106.1 114.5h3.8v4h-3.8z"/>
  <path opacity=".63" fill="#3C62B8" d="M106.3 80.6h-10v15.2h23.4"/>
  <path fill="#3D3D3D" d="M121.1 98.7h4.9v4h-4.9z"/>
  <path fill="#3D3D3D" d="M128 114.5h-10.5v-4h6.5V94.1l-15.8-17.9H92v34.3h6.5v4H88V72.2h22l18 20.4"/>
  <path fill="#3D3D3D" d="M88 72.2h4v41.6h-4z"/>
  <g fill="#3D3D3D">
    <path d="M32.8 112.5c0-.7.1-1.4.2-2H15.8v4H33c-.1-.6-.2-1.3-.2-2zM51.6 110.5c.1.6.2 1.3.2 2s-.1 1.4-.2 2H92v-4H51.6zM15.2 104h76.1v4H15.2z"/>
    <path d="M14.6 104.7h3.8v9.9h-3.8z"/>
  </g>
  <path fill="#3D3D3D" d="M12.9 89.7h15.7v4H12.9zM5.6 82h31.2v4H5.6zM.3 89.7h8.8v4H.3zM13 74.4h15.7v4H13zM.4 74.4h8.8v4H.4z"/>
  <g fill="#3D3D3D">
    <path d="M61.1 97.4h3.8v4h-3.8zM53.4 97.4h3.8v4h-3.8zM45.8 97.4h3.8v4h-3.8z"/>
  </g>
  <path fill="#3D3D3D" d="M55.3 56.7h3.9v5.9h-3.9z"/>
  <path fill="#3D3D3D" d="M62 57.6h-9.7c-1 0-1.8-.8-1.8-1.8v-.4c0-1 .8-1.8 1.8-1.8H62c1 0 1.8.8 1.8 1.8v.4c0 1-.8 1.8-1.8 1.8zM76.2 62.4l-.4-.1h-61l-.5.3c-.4.3-2.9 2.1-4.7 7.4h4.3c.9-2.1 1.8-3.3 2.3-3.8H75c1.1.8 5.2 4.7 5.2 18.9 0 11.9-4.1 17.4-5.4 18.9H16.2c-.6-.7-1.6-2.1-2.6-4.6H9.4c1.9 5.9 4.5 8 4.7 8.2l.5.4h61.5l.5-.4c.3-.2 7.3-6.1 7.3-22.4.2-19.1-6.9-22.4-7.7-22.8z"/>
</svg>
