<svg xmlns="http://www.w3.org/2000/svg" width="128" height="128" viewBox="0 0 128 128">
  <path opacity=".63" fill="#3C62B8" d="M7.4 74.5h72.8v45.8H7.4z"/>
  <path fill="#3D3D3D" d="M80.2 68.8h-3.4v-7.3h-71c-.6 0-1.2.3-1.7.8s-.7 1.2-.7 1.9H0c0-1.7.6-3.4 1.7-4.6 1.1-1.2 2.5-1.9 4.1-1.9h74.4v11.1z"/>
  <path fill="#DF252A" d="M13.2 52.8H67v16.1H13.2z"/>
  <path fill="#3D3D3D" d="M87 128H5.8c-1.5 0-3-.7-4.1-1.9-1.1-1.2-1.7-2.8-1.7-4.6V64.2h3.4c0 .7.2 1.4.7 1.9s1 .8 1.7.8H87v23.3h-3.4V70.7H5.8c-.8 0-1.6-.2-2.4-.6v51.4c0 .7.2 1.4.7 1.9s1 .8 1.7.8h77.9v-19.5H87V128z"/>
  <g fill="#3D3D3D">
    <path d="M90.4 106.6h-19c-2.2 0-4.2-1-5.8-2.7-1.5-1.7-2.4-4-2.4-6.5 0-2.4.9-4.7 2.4-6.5 1.5-1.7 3.6-2.7 5.8-2.7h19v18.4zm-19-14.5c-1.3 0-2.5.6-3.3 1.6-.9 1-1.4 2.3-1.4 3.8 0 1.4.5 2.8 1.4 3.8.9 1 2.1 1.6 3.3 1.6H87V92l-15.6.1z"/>
    <path d="M69.7 95.5h3.4v3.8h-3.4z"/>
  </g>
  <g fill="#3D3D3D">
    <path d="M6.8 116.6h3.4v3.8H6.8zM10.2 113.1H6.8v-3.5h3.4v3.5zm0-6.9H6.8v-3.5h3.4v3.5zm0-7H6.8v-3.5h3.4v3.5zm0-7H6.8v-3.5h3.4v3.5zm0-6.9H6.8v-3.5h3.4v3.5zM6.8 74.5h3.4v3.8H6.8zM73.3 78.4h-3.5v-3.8h3.5v3.8zm-7 0h-3.5v-3.8h3.5v3.8zm-7 0h-3.5v-3.8h3.5v3.8zm-7 0h-3.5v-3.8h3.5v3.8zm-7.1 0h-3.5v-3.8h3.5v3.8zm-7 0h-3.5v-3.8h3.5v3.8zm-7 0h-3.5v-3.8h3.5v3.8zm-7 0h-3.5v-3.8h3.5v3.8zm-7 0h-3.5v-3.8h3.5v3.8zM76.8 74.5h3.4v3.8h-3.4zM80.2 113.1h-3.4v-3.5h3.4v3.5zm0-27.8h-3.4v-3.5h3.4v3.5zM76.8 116.6h3.4v3.8h-3.4zM73.3 120.4h-3.5v-3.8h3.5v3.8zm-7 0h-3.5v-3.8h3.5v3.8zm-7 0h-3.5v-3.8h3.5v3.8zm-7 0h-3.5v-3.8h3.5v3.8zm-7.1 0h-3.5v-3.8h3.5v3.8zm-7 0h-3.5v-3.8h3.5v3.8zm-7 0h-3.5v-3.8h3.5v3.8zm-7 0h-3.5v-3.8h3.5v3.8zm-7 0h-3.5v-3.8h3.5v3.8z"/>
  </g>
</svg>
